# xmcd
#
# Track frame offsets:
#	150
#	10225
#	24291
#	40083
#	59139
#	91840
#	103988
#	106914
#	110073
#	117515
#	120838
#	124743
#	127161
#	130306
#	134850
#	137940
#	226598
#
# Disc length: 4052 seconds
#
# Revision: 1
# Processed by: cddbd v1.5PL3 Copyright (c) Steve Scherf et al.
# Submitted via: audiograbber 1.83.01
#
DISCID=f60fd211
DTITLE=Jerry Lee Lewis - Mercury Smashes CD 10
DYEAR=1900
DGENRE=
TTITLE0=Live from Toronto - Hound Dog 
TTITLE1=Live from Toronto - Mean Woman Blues
TTITLE2=Live from Toronto - Great Balls of Fire 
TTITLE3=Live from Toronto - Mystery Train
TTITLE4=Live from Toronto - Whole lotta Shakin' goin' on
TTITLE5=Live from Toronto - Jailhouse Rock 
TTITLE6=Interview 
TTITLE7=Interview 
TTITLE8=Interview 
TTITLE9=Interview 
TTITLE10=Interview 
TTITLE11=Interview 
TTITLE12=Interview 
TTITLE13=Interview 
TTITLE14=Interview 
TTITLE15=Radio Special 
TTITLE16=Radio Special 
EXTD=
EXTT0=
EXTT1=
EXTT2=
EXTT3=
EXTT4=
EXTT5=
EXTT6=
EXTT7=
EXTT8=
EXTT9=
EXTT10=
EXTT11=
EXTT12=
EXTT13=
EXTT14=
EXTT15=
EXTT16=
PLAYORDER=
